# xmcd
#
# Track frame offsets:
#	150
#	28903
#	51020
#	101080
#	123153
#	152325
#	180853
#	219698
#
# Disc length: 3271 seconds
#
# Revision: 3
# Processed by: cddbd v1.5.2PL0 Copyright (c) Steve Scherf et al.
# Submitted via: EasyCDDAExtractor 15.3.0.1
#
DISCID=600cc508
DTITLE=Luis Enrique - En Vivo
DYEAR=1992
DGENRE=Latin
TTITLE0=Opening Act, Y Pensar
TTITLE1=Aventura
TTITLE2=Medley (Desesperado, Tu No Le Amas Le Temes, Mi Mundo, Lo Que Paso Ent
TTITLE2=re Tu Y Yo... Paso)
TTITLE3=What's Going On
TTITLE4=Como Fue
TTITLE5=Amiga
TTITLE6=Latin Jazz Theme
TTITLE7=Date Un Chance
EXTD=YEAR: 1992
EXTT0=
EXTT1=
EXTT2=
EXTT3=
EXTT4=
EXTT5=
EXTT6=
EXTT7=
PLAYORDER=
